<?xml version="1.0" standalone="no"?>
<!DOCTYPE svg PUBLIC "-//W3C//DTD SVG 20010904//EN"
 "http://www.w3.org/TR/2001/REC-SVG-20010904/DTD/svg10.dtd">
<svg version="1.0" xmlns="http://www.w3.org/2000/svg"
 width="880.000000pt" height="840.000000pt" viewBox="0 0 880.000000 840.000000"
 preserveAspectRatio="xMidYMid meet">

<g transform="translate(0.000000,840.000000) scale(0.100000,-0.100000)"
fill="#000000" stroke="none">
<path d="M4255 7989 c-167 -14 -311 -58 -460 -141 -443 -248 -2654 -1583
-3097 -1870 -122 -79 -173 -138 -249 -288 l-43 -85 -1 -2130 c0 -1635 3 -2145
12 -2195 19 -99 90 -234 169 -319 76 -82 142 -130 261 -189 l81 -41 3379 -1
c2050 -1 3417 3 3478 9 119 11 188 35 287 100 131 86 238 221 289 367 38 111
41 299 37 2404 l-4 1995 -48 93 c-71 136 -122 197 -229 270 -181 124 -1114
692 -2217 1349 -878 523 -976 579 -1078 613 -152 51 -377 74 -567 59z m1629
-1511 c1398 -840 1698 -1023 1752 -1070 30 -26 34 -36 34 -78 l0 -49 -360
-238 c-199 -131 -843 -559 -1433 -951 -590 -392 -1097 -726 -1129 -742 -177
-92 -437 -100 -652 -20 -36 14 -287 175 -662 424 -332 220 -781 518 -996 661
-216 143 -599 397 -851 564 l-457 304 0 37 c0 54 25 80 169 174 322 213 2842
1724 2921 1753 22 8 94 12 199 13 l164 0 1301 -782z m1786 -3280 l0 -1203
-538 539 c-671 674 -894 904 -887 916 9 14 203 146 775 526 289 192 550 366
580 386 30 20 58 37 63 37 4 1 7 -540 7 -1201z m-6160 957 c788 -519 1070
-708 1070 -716 0 -11 -1430 -1449 -1441 -1449 -10 0 -12 2169 -2 2309 4 63 10
91 17 88 7 -3 167 -107 356 -232z m5660 -2697 c0 -5 -1245 -8 -2767 -8 l-2768
0 791 791 791 791 144 -100 c194 -134 330 -219 414 -258 93 -42 282 -100 375
-115 100 -15 478 -5 580 15 208 43 372 126 705 355 l160 110 788 -787 c433
-433 787 -790 787 -794z"/>
</g>
</svg>
