<svg width="10" height="10" viewBox="0 0 10 10" fill="none" xmlns="http://www.w3.org/2000/svg">
<path d="M5.00001 0.166992C2.32001 0.166992 0.140015 2.34699 0.140015 5.02699C0.140015 7.70699 2.32001 9.88699 5.00001 9.88699C7.68001 9.88699 9.86002 7.70699 9.86002 5.02699C9.86002 2.34699 7.68001 0.166992 5.00001 0.166992ZM7.00001 5.74999H5.75001V6.99999C5.75001 7.41399 5.41401 7.74999 5.00001 7.74999C4.58601 7.74999 4.25001 7.41399 4.25001 6.99999V5.74999H3.00001C2.58601 5.74999 2.25001 5.41399 2.25001 4.99999C2.25001 4.58599 2.58601 4.24999 3.00001 4.24999H4.25001V2.99999C4.25001 2.58599 4.58601 2.24999 5.00001 2.24999C5.41401 2.24999 5.75001 2.58599 5.75001 2.99999V4.24999H7.00001C7.41401 4.24999 7.75001 4.58599 7.75001 4.99999C7.75001 5.41399 7.41401 5.74999 7.00001 5.74999Z" fill="white"/>
</svg>
