<?xml version="1.0" standalone="no"?>
<!DOCTYPE svg PUBLIC "-//W3C//DTD SVG 20010904//EN"
 "http://www.w3.org/TR/2001/REC-SVG-20010904/DTD/svg10.dtd">
<svg version="1.0" xmlns="http://www.w3.org/2000/svg"
 width="256.000000pt" height="256.000000pt" viewBox="0 0 256.000000 256.000000"
 preserveAspectRatio="xMidYMid meet">

<g transform="translate(0.000000,256.000000) scale(0.100000,-0.100000)"
fill="#000000" stroke="none">
<path d="M1201 1816 c-897 -303 -902 -305 -887 -353 5 -15 513 -348 530 -348
3 0 270 214 593 477 684 554 639 517 633 517 -3 0 -394 -132 -869 -293z"/>
<path d="M1745 1480 c-273 -320 -498 -587 -501 -594 -6 -17 628 -436 660 -436
13 0 29 7 36 14 6 8 65 302 130 653 66 351 132 707 148 791 16 83 27 152 26
152 -2 0 -226 -261 -499 -580z"/>
<path d="M1405 1432 l-500 -405 3 -56 c2 -31 13 -146 25 -256 l22 -200 78 190
78 190 196 230 c108 127 288 337 400 468 113 132 203 240 201 242 -2 1 -228
-180 -503 -403z"/>
<path d="M1171 772 c-30 -57 -128 -311 -117 -305 42 25 285 209 283 215 -1 4
-37 29 -79 57 -69 45 -79 48 -87 33z"/>
</g>
</svg>
